<?xml version="1.0" encoding="utf-8"?>
<!-- Svg Vector Icons : http://www.onlinewebfonts.com/icon -->
<!DOCTYPE svg PUBLIC "-//W3C//DTD SVG 1.1//EN" "http://www.w3.org/Graphics/SVG/1.1/DTD/svg11.dtd">
<svg version="1.1" xmlns="http://www.w3.org/2000/svg" xmlns:xlink="http://www.w3.org/1999/xlink" x="0px" y="0px" viewBox="0 0 1000 1000" enable-background="new 0 0 1000 1000" fill="blue" xml:space="preserve">
<metadata> Svg Vector Icons : http://www.onlinewebfonts.com/icon </metadata>
<g><path d="M835.6,680.3H789V567.3c0-48.7-39.4-88.1-88.1-88.1H521.7V319.7h46.6c48.7,0,88.1-39.4,88.1-88.1V98.1c0-48.7-39.4-88.1-88.1-88.1H433.7c-48.7,0-88.1,39.4-88.1,88.1v133.6c0,48.7,39.4,88.1,88.1,88.1h46.6v159.5H300.1c-48.7,0-88.1,39.4-88.1,88.1v112.9h-46.6c-48.7,0-88.1,39.4-88.1,88.1v133.6c0,48.7,39.4,88.1,88.1,88.1H299c48.7,0,88.1-39.4,88.1-88.1V767.3c0-48.7-39.4-88.1-88.1-88.1h-46.6V567.3c0-25.9,20.7-46.6,46.6-46.6H701c25.9,0,46.6,20.7,46.6,46.6v112.9H701c-48.7,0-88.1,39.4-88.1,88.1v133.6c0,48.7,39.4,88.1,88.1,88.1h133.6c48.7,0,88.1-39.4,88.1-88.1V767.3C923.7,719.6,884.3,680.3,835.6,680.3z M388.1,232.7V98.1c0-25.9,20.7-46.6,46.6-46.6h133.6c25.9,0,46.6,20.7,46.6,46.6v133.6c0,25.9-20.7,46.6-46.6,46.6H433.7C408.8,278.3,388.1,257.6,388.1,232.7z M346.7,767.3v133.6c0,25.9-20.7,46.6-46.6,46.6H166.4c-25.9,0-46.6-20.7-46.6-46.6V767.3c0-25.9,20.7-46.6,46.6-46.6h133.6C326,721.7,346.7,742.4,346.7,767.3z M882.3,901.9c0,25.9-20.7,46.6-46.6,46.6H702c-25.9,0-46.6-20.7-46.6-46.6V767.3c0-25.9,20.7-46.6,46.6-46.6h133.6c25.9,0,46.6,20.7,46.6,46.6V901.9z"/></g>
</svg>