<!-- icon666.com - MILLIONS vector ICONS FREE --><svg viewBox="-11 0 496 496.02279" xmlns="http://www.w3.org/2000/svg" xmlns:xlink="http://www.w3.org/1999/xlink"><linearGradient id="a"><stop offset="0" stop-color="#00efd1"></stop><stop offset="1" stop-color="#00acea"></stop></linearGradient><linearGradient id="b" gradientUnits="userSpaceOnUse" x1="236.914395" x2="236.914395" xlink:href="#a" y1="26" y2="477.07"></linearGradient><linearGradient id="c" gradientUnits="userSpaceOnUse" x1="152.011395" x2="152.011395" xlink:href="#a" y1="26" y2="477.07"></linearGradient><linearGradient id="d" gradientUnits="userSpaceOnUse" x1="70.511395" x2="70.511395" xlink:href="#a" y1="26" y2="477.07"></linearGradient><linearGradient id="e" gradientUnits="userSpaceOnUse" x1="232.511395" x2="232.511395" xlink:href="#a" y1="26" y2="477.07"></linearGradient><linearGradient id="f" gradientUnits="userSpaceOnUse" x1="152.014395" x2="152.014395" xlink:href="#a" y1="26" y2="477.07"></linearGradient><path d="m465.820312 286.167969-169.695312-.167969h-4.113281v-148h4.125c2.066406.082031 4.078125-.683594 5.566406-2.121094s2.320313-3.421875 2.308594-5.488281v-30.65625c.015625-2.082031-.8125-4.078125-2.296875-5.539063-1.484375-1.457031-3.496094-2.25-5.578125-2.195312h-55.769531c.046874-1 .089843-2.339844.089843-3.546875-.011719-48.820313-39.5625-88.4023438-88.378906-88.453125h-.066406c-48.785157.03125-88.34375 39.535156-88.445313 88.320312 0 1.25.035156 1.679688.089844 3.679688h-55.445312c-2.113282-.066406-4.167969.710938-5.707032 2.160156-1.539062 1.453125-2.4374998 3.460938-2.4921872 5.574219v30.65625c0 4.417969 3.7773432 7.609375 8.1992192 7.609375h3.800781v148h-3.800781c-4.503907.09375-8.1289068 3.738281-8.1992192 8.242188v30.65625c.0859374 4.476562 3.7226562 8.070312 8.1992192 8.101562h3.800781v155.019531c.113281 4.460938 3.777343 8.007813 8.238281 7.980469h263.84375c.171875 0 .339844 0 .511719-.015625l50.855469-.171875c.789062.1875 1.605468.25 2.417968.1875h60.332032c.789062.054688 1.585937-.007812 2.355468-.1875l54.90625.1875c2.113282.011719 4.148438-.816406 5.648438-2.304688 1.5-1.488281 2.347656-3.515624 2.351562-5.632812l.058594-155.0625h2.273438c4.425781-.015625 8-3.609375 8-8.03125l.011718-30.675781c0-2.140625-.839844-4.195313-2.339844-5.71875-1.496093-1.519531-3.527343-2.382813-5.65625-2.40625zm-227.574218-178.167969h49.765625v14h-54.449219c2.089844-4.472656 3.664062-9.167969 4.683594-14zm-86.234375-92h.054687c29.292969-.003906 55.699219 17.648438 66.894532 44.714844 11.195312 27.070312 4.972656 58.214844-15.761719 78.90625-13.53125 13.664062-31.957031 21.359375-51.1875 21.378906h-.058594c-19.347656-1-37.535156-7.8125-51.207031-21.5-20.703125-20.707031-26.882813-51.847656-15.65625-78.890625 11.222656-27.042969 37.640625-44.652344 66.921875-44.609375zm-62.585938 134.605469c16.691407 16.71875 38.894531 25.394531 62.519531 26.394531h.066407c23.5-.101562 45.992187-9.566406 62.492187-26.300781 3.929688-3.785157 7.371094-8.050781 10.238282-12.699219h51.269531v148h-90v-88.898438c0-4.421874-3.148438-8.101562-7.570313-8.101562h-53.5c-4.421875.054688-7.96875 3.675781-7.929687 8.101562v88.898438h-89v-148h51.273437c2.828125 4.617188 6.234375 8.851562 10.140625 12.605469zm80.585938 54.394531v81h-37v-81zm-154-97h49.765625c1.019531 4.832031 2.59375 9.527344 4.683594 14h-54.449219zm260 372h-248v-147h248zm12.101562-163h-272.101562v-15h272.109375zm101.898438 163.027344-44-.011719v-61.015625h44zm57.367187.019531-41.367187-.015625v-69.183594c.039062-2.082031-.769531-4.09375-2.238281-5.574218-1.472657-1.480469-3.476563-2.300782-5.5625-2.273438h-60.332032c-2.09375-.027344-4.109375.789062-5.589844 2.265625-1.480468 1.476563-2.300781 3.492187-2.277343 5.582031v69.160156l-38-.007812v-147h4.125c.199219 0 .398437-.066406.601562-.082031l150.75.027343zm-143.367187-163.179687v-14.652344l153.707031.054687.027344 14.65625zm0 0" fill="url(#b)"></path><path d="m62.011719 450h180c4.417969 0 8-3.582031 8-8v-66c0-4.417969-3.582031-8-8-8h-180c-4.417969 0-8 3.582031-8 8v66c0 4.417969 3.582031 8 8 8zm8-66h164v50h-164zm0 0" fill="url(#c)"></path><path d="m47.011719 247h47c4.417969 0 8-3.582031 8-8v-38c0-4.417969-3.582031-8-8-8h-47c-4.417969 0-8 3.582031-8 8v38c0 4.417969 3.582031 8 8 8zm8-38h31v22h-31zm0 0" fill="url(#d)"></path><path d="m209.011719 247h47c4.417969 0 8-3.582031 8-8v-38c0-4.417969-3.582031-8-8-8h-47c-4.417969 0-8 3.582031-8 8v38c0 4.417969 3.582031 8 8 8zm8-38h32v22h-32zm0 0" fill="url(#e)"></path><path d="m111.453125 107.804688 20.792969.042968-.015625 20.839844c-.007813 4.4375 3.558593 8.050781 7.996093 8.097656l23.5.210938h.003907c2.140625-.0625 4.171875-.964844 5.652343-2.511719 1.507813-1.566406 2.347657-3.652344 2.347657-5.828125l.015625-20.753906 20.792968.09375h.007813c4.441406-.054688 8.007813-3.671875 8-8.113282l.019531-23.625c-.019531-4.453124-3.550781-8.097656-8-8.261718h-20.785156l.015625-20.582032c-.003906-2.050781-.847656-4.007812-2.339844-5.414062-1.511719-1.46875-3.546875-2.269531-5.652343-2.222656l-23.5.226562h-.007813c-2.082031-.101562-4.121094.640625-5.652344 2.058594-1.492187 1.390625-2.34375 3.335938-2.347656 5.375l-.015625 20.722656-20.796875-.160156h-.007813c-4.441406.070312-8.007812 3.695312-8 8.140625l-.015624 23.648437c-.003907 4.417969 3.570312 8.007813 7.992187 8.015626zm8.019531-23.671876 20.792969-.132812h.003906c2.105469.035156 4.136719-.777344 5.640625-2.25s2.351563-3.488281 2.359375-5.59375l.015625-20.644531 7.5.007812-.015625 20.800781c0 4.421876 3.574219 8.007813 7.996094 8.023438l20.792969.039062v7.546876l-20.792969.070312h-.007813c-2.109374-.03125-4.144531.777344-5.652343 2.25-1.5 1.464844-2.34375 3.46875-2.347657 5.566406l-.015624 20.792969h-7.5l.015624-20.800781c0-4.421875-3.570312-8.011719-7.992187-8.035156l-20.796875-.054688zm0 0" fill="url(#f)"></path></svg>